<svg xmlns="http://www.w3.org/2000/svg" viewBox="0 0 32 32" role="img" aria-label="Sign">
  <defs>
    <linearGradient id="bg" x1="0" y1="0" x2="32" y2="32" gradientUnits="userSpaceOnUse">
      <stop offset="0" stop-color="#14171f"/>
      <stop offset="1" stop-color="#0b0d12"/>
    </linearGradient>
    <linearGradient id="accent" x1="8" y1="6" x2="26" y2="28" gradientUnits="userSpaceOnUse">
      <stop offset="0" stop-color="#c084fc"/>
      <stop offset="1" stop-color="#aa3bff"/>
    </linearGradient>
  </defs>
  <!-- rounded tile -->
  <rect width="32" height="32" rx="7" fill="url(#bg)"/>
  <!-- document -->
  <path
    fill="#f8fafc"
    fill-opacity="0.95"
    d="M9 7.5h9.2L21 10.3V24.5a1.2 1.2 0 0 1-1.2 1.2H9a1.2 1.2 0 0 1-1.2-1.2V8.7a1.2 1.2 0 0 1 1.2-1.2Z"
  />
  <path fill="#e2e8f0" d="M18.2 7.5V10h2.8L18.2 7.5Z"/>
  <!-- signature line -->
  <path
    fill="none"
    stroke="#94a3b8"
    stroke-width="1.1"
    stroke-linecap="round"
    d="M10.5 19.5h8.5"
  />
  <!-- flowing signature + pen nib -->
  <path
    fill="none"
    stroke="url(#accent)"
    stroke-width="2.2"
    stroke-linecap="round"
    stroke-linejoin="round"
    d="M11 16.2c2.2-1.4 4.1-.6 5.4 1.1 1.2 1.6 3.4 2.2 5.1.9"
  />
  <path
    fill="url(#accent)"
    d="M22.8 15.2 24.6 17l-1.4 1.4-2.6-.9 2.2-2.3Z"
  />
  <!-- subtle EIP-712 hint: bracket corners -->
  <path
    fill="none"
    stroke="#aa3bff"
    stroke-opacity="0.35"
    stroke-width="0.9"
    stroke-linecap="round"
    d="M6.5 11.5V8.5h3M25.5 20.5v3h-3"
  />
</svg>
